<?xml version="1.0" encoding="UTF-8" standalone="no"?>
<!DOCTYPE svg PUBLIC "-//W3C//DTD SVG 1.1//EN"
 "http://www.w3.org/Graphics/SVG/1.1/DTD/svg11.dtd">
<!-- Generated by graphviz version 2.38.0 (20140413.2041)
 -->
<!-- Title: Tree Pages: 1 -->
<svg width="434pt" height="1028pt"
 viewBox="0.00 0.00 434.00 1028.00" xmlns="http://www.w3.org/2000/svg" xmlns:xlink="http://www.w3.org/1999/xlink">
<g id="graph0" class="graph" transform="scale(1 1) rotate(0) translate(4 1024)">
<title>Tree</title>
<polygon fill="white" stroke="none" points="-4,4 -4,-1024 430,-1024 430,4 -4,4"/>
<!-- 0 -->
<g id="node1" class="node"><title>0</title>
<text text-anchor="start" x="153.5" y="-1000.3" font-family="Helvetica,sans-Serif" font-size="14.00" fill="#222222">Node 0</text>
<polyline fill="none" stroke="#777777" points="103,-972.5 116,-972.5 "/>
<polyline fill="none" stroke="#777777" points="117,-972.5 183,-972.5 "/>
<text text-anchor="start" x="121" y="-979.3" font-family="Helvetica,sans-Serif" font-size="14.00" fill="#222222">Category</text>
<polyline fill="none" stroke="#777777" points="184,-972.5 227,-972.5 "/>
<text text-anchor="start" x="199" y="-979.3" font-family="Helvetica,sans-Serif" font-size="14.00" fill="#222222">%</text>
<polyline fill="none" stroke="#777777" points="228,-972.5 251,-972.5 "/>
<text text-anchor="start" x="235.5" y="-979.3" font-family="Helvetica,sans-Serif" font-size="14.00" fill="#222222">n</text>
<polygon fill="#ffffff" stroke="none" points="103,-952.5 103,-971.5 116,-971.5 116,-952.5 103,-952.5"/>
<text text-anchor="start" x="105" y="-958.3" font-family="Helvetica,sans-Serif" font-size="14.00" fill="#7293cb">■</text>
<polygon fill="#ffffff" stroke="none" points="117,-952.5 117,-971.5 183,-971.5 183,-952.5 117,-952.5"/>
<text text-anchor="start" x="119" y="-958.3" font-family="Helvetica,sans-Serif" font-size="14.00" fill="#222222">versicolor</text>
<polygon fill="#ffffff" stroke="none" points="184,-952.5 184,-971.5 227,-971.5 227,-952.5 184,-952.5"/>
<text text-anchor="start" x="191" y="-958.3" font-family="Helvetica,sans-Serif" font-size="14.00" fill="#222222">31.3</text>
<polygon fill="#ffffff" stroke="none" points="228,-952.5 228,-971.5 251,-971.5 251,-952.5 228,-952.5"/>
<text text-anchor="start" x="231" y="-958.3" font-family="Helvetica,sans-Serif" font-size="14.00" fill="#222222">31</text>
<polygon fill="#ffffff" stroke="none" points="103,-932.5 103,-951.5 116,-951.5 116,-932.5 103,-932.5"/>
<text text-anchor="start" x="105" y="-938.3" font-family="Helvetica,sans-Serif" font-size="14.00" fill="#e1974c">■</text>
<polygon fill="#ffffff" stroke="none" points="117,-932.5 117,-951.5 183,-951.5 183,-932.5 117,-932.5"/>
<text text-anchor="start" x="124" y="-938.3" font-family="Helvetica,sans-Serif" font-size="14.00" fill="#222222">virginica</text>
<polygon fill="#ffffff" stroke="none" points="184,-932.5 184,-951.5 227,-951.5 227,-932.5 184,-932.5"/>
<text text-anchor="start" x="191" y="-938.3" font-family="Helvetica,sans-Serif" font-size="14.00" fill="#222222">33.3</text>
<polygon fill="#ffffff" stroke="none" points="228,-932.5 228,-951.5 251,-951.5 251,-932.5 228,-932.5"/>
<text text-anchor="start" x="231" y="-938.3" font-family="Helvetica,sans-Serif" font-size="14.00" fill="#222222">33</text>
<polygon fill="#aaaaaa" stroke="none" points="103,-912.5 103,-931.5 116,-931.5 116,-912.5 103,-912.5"/>
<text text-anchor="start" x="105" y="-918.3" font-family="Helvetica,sans-Serif" font-size="14.00" fill="#84ba5b">■</text>
<polygon fill="#aaaaaa" stroke="none" points="117,-912.5 117,-931.5 183,-931.5 183,-912.5 117,-912.5"/>
<text text-anchor="start" x="128.5" y="-918.3" font-family="Helvetica,sans-Serif" font-size="14.00" fill="#ffffff">setosa</text>
<polygon fill="#aaaaaa" stroke="none" points="184,-912.5 184,-931.5 227,-931.5 227,-912.5 184,-912.5"/>
<text text-anchor="start" x="191" y="-918.3" font-family="Helvetica,sans-Serif" font-size="14.00" fill="#ffffff">35.4</text>
<polygon fill="#aaaaaa" stroke="none" points="228,-912.5 228,-931.5 251,-931.5 251,-912.5 228,-912.5"/>
<text text-anchor="start" x="231" y="-918.3" font-family="Helvetica,sans-Serif" font-size="14.00" fill="#ffffff">35</text>
<polyline fill="none" stroke="#777777" points="116,-911.5 103,-911.5 "/>
<polyline fill="none" stroke="#777777" points="183,-911.5 117,-911.5 "/>
<text text-anchor="start" x="134" y="-897.3" font-family="Helvetica,sans-Serif" font-size="14.00" fill="#222222">Total</text>
<polyline fill="none" stroke="#777777" points="227,-911.5 184,-911.5 "/>
<text text-anchor="start" x="187" y="-897.3" font-family="Helvetica,sans-Serif" font-size="14.00" fill="#222222">100.0</text>
<polyline fill="none" stroke="#777777" points="251,-911.5 228,-911.5 "/>
<text text-anchor="start" x="231" y="-897.3" font-family="Helvetica,sans-Serif" font-size="14.00" fill="#222222">99</text>
<polygon fill="#ffffff" stroke="none" points="133,-869.5 133,-886.5 163,-886.5 163,-869.5 133,-869.5"/>
<polygon fill="#ffffff" stroke="none" points="163,-869.5 163,-886.5 193,-886.5 193,-869.5 163,-869.5"/>
<polygon fill="#ffffff" stroke="none" points="193,-869.5 193,-886.5 223,-886.5 223,-869.5 193,-869.5"/>
<polygon fill="#ffffff" stroke="none" points="133,-868.5 133,-869.5 163,-869.5 163,-868.5 133,-868.5"/>
<polygon fill="#e1974c" stroke="none" points="163,-868.5 163,-869.5 193,-869.5 193,-868.5 163,-868.5"/>
<polygon fill="#84ba5b" stroke="none" points="193,-868.5 193,-869.5 223,-869.5 223,-868.5 193,-868.5"/>
<polygon fill="#7293cb" stroke="none" points="133,-861.5 133,-868.5 163,-868.5 163,-861.5 133,-861.5"/>
<polygon fill="#e1974c" stroke="none" points="163,-861.5 163,-868.5 193,-868.5 193,-861.5 163,-861.5"/>
<polygon fill="#84ba5b" stroke="none" points="193,-861.5 193,-868.5 223,-868.5 223,-861.5 193,-861.5"/>
<polyline fill="none" stroke="#777777" points="132,-887.5 132,-862.5 222,-862.5 "/>
<polygon fill="none" stroke="#777777" points="101,-859 101,-1016 253,-1016 253,-859 101,-859"/>
</g>
<!-- V0 -->
<g id="node3" class="node"><title>V0</title>
<text text-anchor="middle" x="177" y="-797.5" font-family="Helvetica,sans-Serif" font-size="10.00">petal_width</text>
</g>
<!-- 0&#45;&gt;V0 -->
<g id="edge1" class="edge"><title>0&#45;&gt;V0</title>
<path fill="none" stroke="#777777" d="M177,-854.943C177,-841.042 177,-827.952 177,-818.148"/>
</g>
<!-- 1 -->
<g id="node2" class="node"><title>1</title>
<text text-anchor="start" x="96.5" y="-715.3" font-family="Helvetica,sans-Serif" font-size="14.00" fill="#222222">Node 1</text>
<polyline fill="none" stroke="#777777" points="47,-687.5 60,-687.5 "/>
<polyline fill="none" stroke="#777777" points="61,-687.5 127,-687.5 "/>
<text text-anchor="start" x="65" y="-694.3" font-family="Helvetica,sans-Serif" font-size="14.00" fill="#222222">Category</text>
<polyline fill="none" stroke="#777777" points="128,-687.5 169,-687.5 "/>
<text text-anchor="start" x="142" y="-694.3" font-family="Helvetica,sans-Serif" font-size="14.00" fill="#222222">%</text>
<polyline fill="none" stroke="#777777" points="170,-687.5 193,-687.5 "/>
<text text-anchor="start" x="177.5" y="-694.3" font-family="Helvetica,sans-Serif" font-size="14.00" fill="#222222">n</text>
<polygon fill="#ffffff" stroke="none" points="47,-667.5 47,-686.5 60,-686.5 60,-667.5 47,-667.5"/>
<text text-anchor="start" x="49" y="-673.3" font-family="Helvetica,sans-Serif" font-size="14.00" fill="#7293cb">■</text>
<polygon fill="#ffffff" stroke="none" points="61,-667.5 61,-686.5 127,-686.5 127,-667.5 61,-667.5"/>
<text text-anchor="start" x="63" y="-673.3" font-family="Helvetica,sans-Serif" font-size="14.00" fill="#222222">versicolor</text>
<polygon fill="#ffffff" stroke="none" points="128,-667.5 128,-686.5 169,-686.5 169,-667.5 128,-667.5"/>
<text text-anchor="start" x="138" y="-673.3" font-family="Helvetica,sans-Serif" font-size="14.00" fill="#222222">0.0</text>
<polygon fill="#ffffff" stroke="none" points="170,-667.5 170,-686.5 193,-686.5 193,-667.5 170,-667.5"/>
<text text-anchor="start" x="177" y="-673.3" font-family="Helvetica,sans-Serif" font-size="14.00" fill="#222222">0</text>
<polygon fill="#ffffff" stroke="none" points="47,-647.5 47,-666.5 60,-666.5 60,-647.5 47,-647.5"/>
<text text-anchor="start" x="49" y="-653.3" font-family="Helvetica,sans-Serif" font-size="14.00" fill="#e1974c">■</text>
<polygon fill="#ffffff" stroke="none" points="61,-647.5 61,-666.5 127,-666.5 127,-647.5 61,-647.5"/>
<text text-anchor="start" x="68" y="-653.3" font-family="Helvetica,sans-Serif" font-size="14.00" fill="#222222">virginica</text>
<polygon fill="#ffffff" stroke="none" points="128,-647.5 128,-666.5 169,-666.5 169,-647.5 128,-647.5"/>
<text text-anchor="start" x="138" y="-653.3" font-family="Helvetica,sans-Serif" font-size="14.00" fill="#222222">0.0</text>
<polygon fill="#ffffff" stroke="none" points="170,-647.5 170,-666.5 193,-666.5 193,-647.5 170,-647.5"/>
<text text-anchor="start" x="177" y="-653.3" font-family="Helvetica,sans-Serif" font-size="14.00" fill="#222222">0</text>
<polygon fill="#aaaaaa" stroke="none" points="47,-627.5 47,-646.5 60,-646.5 60,-627.5 47,-627.5"/>
<text text-anchor="start" x="49" y="-633.3" font-family="Helvetica,sans-Serif" font-size="14.00" fill="#84ba5b">■</text>
<polygon fill="#aaaaaa" stroke="none" points="61,-627.5 61,-646.5 127,-646.5 127,-627.5 61,-627.5"/>
<text text-anchor="start" x="72.5" y="-633.3" font-family="Helvetica,sans-Serif" font-size="14.00" fill="#ffffff">setosa</text>
<polygon fill="#aaaaaa" stroke="none" points="128,-627.5 128,-646.5 169,-646.5 169,-627.5 128,-627.5"/>
<text text-anchor="start" x="130" y="-633.3" font-family="Helvetica,sans-Serif" font-size="14.00" fill="#ffffff">100.0</text>
<polygon fill="#aaaaaa" stroke="none" points="170,-627.5 170,-646.5 193,-646.5 193,-627.5 170,-627.5"/>
<text text-anchor="start" x="173" y="-633.3" font-family="Helvetica,sans-Serif" font-size="14.00" fill="#ffffff">35</text>
<polyline fill="none" stroke="#777777" points="60,-626.5 47,-626.5 "/>
<polyline fill="none" stroke="#777777" points="127,-626.5 61,-626.5 "/>
<text text-anchor="start" x="78" y="-612.3" font-family="Helvetica,sans-Serif" font-size="14.00" fill="#222222">Total</text>
<polyline fill="none" stroke="#777777" points="169,-626.5 128,-626.5 "/>
<text text-anchor="start" x="134" y="-612.3" font-family="Helvetica,sans-Serif" font-size="14.00" fill="#222222">35.4</text>
<polyline fill="none" stroke="#777777" points="193,-626.5 170,-626.5 "/>
<text text-anchor="start" x="173" y="-612.3" font-family="Helvetica,sans-Serif" font-size="14.00" fill="#222222">35</text>
<polygon fill="#ffffff" stroke="none" points="76,-576.5 76,-601.5 106,-601.5 106,-576.5 76,-576.5"/>
<polygon fill="#ffffff" stroke="none" points="106,-576.5 106,-601.5 136,-601.5 136,-576.5 106,-576.5"/>
<polygon fill="#84ba5b" stroke="none" points="136,-576.5 136,-601.5 166,-601.5 166,-576.5 136,-576.5"/>
<polyline fill="none" stroke="#777777" points="75,-602.5 75,-577.5 165,-577.5 "/>
<polygon fill="none" stroke="#777777" points="45,-574 45,-731 195,-731 195,-574 45,-574"/>
</g>
<!-- V0&#45;&gt;1 -->
<g id="edge2" class="edge"><title>V0&#45;&gt;1</title>
<path fill="none" stroke="#777777" d="M170.238,-781.738C166.391,-771.92 161.244,-758.782 155.709,-744.652"/>
<polygon fill="#777777" stroke="#777777" points="158.932,-743.284 152.026,-735.249 152.414,-745.837 158.932,-743.284"/>
<text text-anchor="middle" x="176" y="-756" font-family="Helvetica,sans-Serif" font-size="10.00" fill="#222222">&lt;=0.6</text>
</g>
<!-- 2 -->
<g id="node4" class="node"><title>2</title>
<text text-anchor="start" x="277.5" y="-715.3" font-family="Helvetica,sans-Serif" font-size="14.00" fill="#222222">Node 2</text>
<polyline fill="none" stroke="#777777" points="231,-687.5 244,-687.5 "/>
<polyline fill="none" stroke="#777777" points="245,-687.5 311,-687.5 "/>
<text text-anchor="start" x="249" y="-694.3" font-family="Helvetica,sans-Serif" font-size="14.00" fill="#222222">Category</text>
<polyline fill="none" stroke="#777777" points="312,-687.5 347,-687.5 "/>
<text text-anchor="start" x="323" y="-694.3" font-family="Helvetica,sans-Serif" font-size="14.00" fill="#222222">%</text>
<polyline fill="none" stroke="#777777" points="348,-687.5 371,-687.5 "/>
<text text-anchor="start" x="355.5" y="-694.3" font-family="Helvetica,sans-Serif" font-size="14.00" fill="#222222">n</text>
<polygon fill="#ffffff" stroke="none" points="231,-667.5 231,-686.5 244,-686.5 244,-667.5 231,-667.5"/>
<text text-anchor="start" x="233" y="-673.3" font-family="Helvetica,sans-Serif" font-size="14.00" fill="#7293cb">■</text>
<polygon fill="#ffffff" stroke="none" points="245,-667.5 245,-686.5 311,-686.5 311,-667.5 245,-667.5"/>
<text text-anchor="start" x="247" y="-673.3" font-family="Helvetica,sans-Serif" font-size="14.00" fill="#222222">versicolor</text>
<polygon fill="#ffffff" stroke="none" points="312,-667.5 312,-686.5 347,-686.5 347,-667.5 312,-667.5"/>
<text text-anchor="start" x="315" y="-673.3" font-family="Helvetica,sans-Serif" font-size="14.00" fill="#222222">48.4</text>
<polygon fill="#ffffff" stroke="none" points="348,-667.5 348,-686.5 371,-686.5 371,-667.5 348,-667.5"/>
<text text-anchor="start" x="351" y="-673.3" font-family="Helvetica,sans-Serif" font-size="14.00" fill="#222222">31</text>
<polygon fill="#aaaaaa" stroke="none" points="231,-647.5 231,-666.5 244,-666.5 244,-647.5 231,-647.5"/>
<text text-anchor="start" x="233" y="-653.3" font-family="Helvetica,sans-Serif" font-size="14.00" fill="#e1974c">■</text>
<polygon fill="#aaaaaa" stroke="none" points="245,-647.5 245,-666.5 311,-666.5 311,-647.5 245,-647.5"/>
<text text-anchor="start" x="252" y="-653.3" font-family="Helvetica,sans-Serif" font-size="14.00" fill="#ffffff">virginica</text>
<polygon fill="#aaaaaa" stroke="none" points="312,-647.5 312,-666.5 347,-666.5 347,-647.5 312,-647.5"/>
<text text-anchor="start" x="315" y="-653.3" font-family="Helvetica,sans-Serif" font-size="14.00" fill="#ffffff">51.6</text>
<polygon fill="#aaaaaa" stroke="none" points="348,-647.5 348,-666.5 371,-666.5 371,-647.5 348,-647.5"/>
<text text-anchor="start" x="351" y="-653.3" font-family="Helvetica,sans-Serif" font-size="14.00" fill="#ffffff">33</text>
<polygon fill="#ffffff" stroke="none" points="231,-627.5 231,-646.5 244,-646.5 244,-627.5 231,-627.5"/>
<text text-anchor="start" x="233" y="-633.3" font-family="Helvetica,sans-Serif" font-size="14.00" fill="#84ba5b">■</text>
<polygon fill="#ffffff" stroke="none" points="245,-627.5 245,-646.5 311,-646.5 311,-627.5 245,-627.5"/>
<text text-anchor="start" x="256.5" y="-633.3" font-family="Helvetica,sans-Serif" font-size="14.00" fill="#222222">setosa</text>
<polygon fill="#ffffff" stroke="none" points="312,-627.5 312,-646.5 347,-646.5 347,-627.5 312,-627.5"/>
<text text-anchor="start" x="319" y="-633.3" font-family="Helvetica,sans-Serif" font-size="14.00" fill="#222222">0.0</text>
<polygon fill="#ffffff" stroke="none" points="348,-627.5 348,-646.5 371,-646.5 371,-627.5 348,-627.5"/>
<text text-anchor="start" x="355" y="-633.3" font-family="Helvetica,sans-Serif" font-size="14.00" fill="#222222">0</text>
<polyline fill="none" stroke="#777777" points="244,-626.5 231,-626.5 "/>
<polyline fill="none" stroke="#777777" points="311,-626.5 245,-626.5 "/>
<text text-anchor="start" x="262" y="-612.3" font-family="Helvetica,sans-Serif" font-size="14.00" fill="#222222">Total</text>
<polyline fill="none" stroke="#777777" points="347,-626.5 312,-626.5 "/>
<text text-anchor="start" x="315" y="-612.3" font-family="Helvetica,sans-Serif" font-size="14.00" fill="#222222">64.6</text>
<polyline fill="none" stroke="#777777" points="371,-626.5 348,-626.5 "/>
<text text-anchor="start" x="351" y="-612.3" font-family="Helvetica,sans-Serif" font-size="14.00" fill="#222222">64</text>
<polygon fill="#ffffff" stroke="none" points="257,-588.5 257,-601.5 287,-601.5 287,-588.5 257,-588.5"/>
<polygon fill="#ffffff" stroke="none" points="287,-588.5 287,-601.5 317,-601.5 317,-588.5 287,-588.5"/>
<polygon fill="#ffffff" stroke="none" points="317,-588.5 317,-601.5 347,-601.5 347,-588.5 317,-588.5"/>
<polygon fill="#7293cb" stroke="none" points="257,-576.5 257,-588.5 287,-588.5 287,-576.5 257,-576.5"/>
<polygon fill="#e1974c" stroke="none" points="287,-576.5 287,-588.5 317,-588.5 317,-576.5 287,-576.5"/>
<polygon fill="#ffffff" stroke="none" points="317,-576.5 317,-588.5 347,-588.5 347,-576.5 317,-576.5"/>
<polyline fill="none" stroke="#777777" points="256,-602.5 256,-577.5 346,-577.5 "/>
<polygon fill="none" stroke="#777777" points="229,-574 229,-731 373,-731 373,-574 229,-574"/>
</g>
<!-- V0&#45;&gt;2 -->
<g id="edge3" class="edge"><title>V0&#45;&gt;2</title>
<path fill="none" stroke="#777777" d="M191.711,-781.738C200.398,-771.546 212.133,-757.776 224.697,-743.034"/>
<polygon fill="#777777" stroke="#777777" points="227.508,-745.131 231.33,-735.249 222.18,-740.59 227.508,-745.131"/>
<text text-anchor="middle" x="223" y="-756" font-family="Helvetica,sans-Serif" font-size="10.00" fill="#222222">&gt;0.6</text>
</g>
<!-- V2 -->
<g id="node6" class="node"><title>V2</title>
<text text-anchor="middle" x="301" y="-512.5" font-family="Helvetica,sans-Serif" font-size="10.00">petal_width</text>
</g>
<!-- 2&#45;&gt;V2 -->
<g id="edge4" class="edge"><title>2&#45;&gt;V2</title>
<path fill="none" stroke="#777777" d="M301,-569.943C301,-556.042 301,-542.952 301,-533.148"/>
</g>
<!-- 3 -->
<g id="node5" class="node"><title>3</title>
<text text-anchor="start" x="144.5" y="-430.3" font-family="Helvetica,sans-Serif" font-size="14.00" fill="#222222">Node 3</text>
<polyline fill="none" stroke="#777777" points="98,-402.5 111,-402.5 "/>
<polyline fill="none" stroke="#777777" points="112,-402.5 178,-402.5 "/>
<text text-anchor="start" x="116" y="-409.3" font-family="Helvetica,sans-Serif" font-size="14.00" fill="#222222">Category</text>
<polyline fill="none" stroke="#777777" points="179,-402.5 214,-402.5 "/>
<text text-anchor="start" x="190" y="-409.3" font-family="Helvetica,sans-Serif" font-size="14.00" fill="#222222">%</text>
<polyline fill="none" stroke="#777777" points="215,-402.5 238,-402.5 "/>
<text text-anchor="start" x="222.5" y="-409.3" font-family="Helvetica,sans-Serif" font-size="14.00" fill="#222222">n</text>
<polygon fill="#aaaaaa" stroke="none" points="98,-382.5 98,-401.5 111,-401.5 111,-382.5 98,-382.5"/>
<text text-anchor="start" x="100" y="-388.3" font-family="Helvetica,sans-Serif" font-size="14.00" fill="#7293cb">■</text>
<polygon fill="#aaaaaa" stroke="none" points="112,-382.5 112,-401.5 178,-401.5 178,-382.5 112,-382.5"/>
<text text-anchor="start" x="114" y="-388.3" font-family="Helvetica,sans-Serif" font-size="14.00" fill="#ffffff">versicolor</text>
<polygon fill="#aaaaaa" stroke="none" points="179,-382.5 179,-401.5 214,-401.5 214,-382.5 179,-382.5"/>
<text text-anchor="start" x="182" y="-388.3" font-family="Helvetica,sans-Serif" font-size="14.00" fill="#ffffff">90.9</text>
<polygon fill="#aaaaaa" stroke="none" points="215,-382.5 215,-401.5 238,-401.5 238,-382.5 215,-382.5"/>
<text text-anchor="start" x="218" y="-388.3" font-family="Helvetica,sans-Serif" font-size="14.00" fill="#ffffff">30</text>
<polygon fill="#ffffff" stroke="none" points="98,-362.5 98,-381.5 111,-381.5 111,-362.5 98,-362.5"/>
<text text-anchor="start" x="100" y="-368.3" font-family="Helvetica,sans-Serif" font-size="14.00" fill="#e1974c">■</text>
<polygon fill="#ffffff" stroke="none" points="112,-362.5 112,-381.5 178,-381.5 178,-362.5 112,-362.5"/>
<text text-anchor="start" x="119" y="-368.3" font-family="Helvetica,sans-Serif" font-size="14.00" fill="#222222">virginica</text>
<polygon fill="#ffffff" stroke="none" points="179,-362.5 179,-381.5 214,-381.5 214,-362.5 179,-362.5"/>
<text text-anchor="start" x="186" y="-368.3" font-family="Helvetica,sans-Serif" font-size="14.00" fill="#222222">9.1</text>
<polygon fill="#ffffff" stroke="none" points="215,-362.5 215,-381.5 238,-381.5 238,-362.5 215,-362.5"/>
<text text-anchor="start" x="222" y="-368.3" font-family="Helvetica,sans-Serif" font-size="14.00" fill="#222222">3</text>
<polygon fill="#ffffff" stroke="none" points="98,-342.5 98,-361.5 111,-361.5 111,-342.5 98,-342.5"/>
<text text-anchor="start" x="100" y="-348.3" font-family="Helvetica,sans-Serif" font-size="14.00" fill="#84ba5b">■</text>
<polygon fill="#ffffff" stroke="none" points="112,-342.5 112,-361.5 178,-361.5 178,-342.5 112,-342.5"/>
<text text-anchor="start" x="123.5" y="-348.3" font-family="Helvetica,sans-Serif" font-size="14.00" fill="#222222">setosa</text>
<polygon fill="#ffffff" stroke="none" points="179,-342.5 179,-361.5 214,-361.5 214,-342.5 179,-342.5"/>
<text text-anchor="start" x="186" y="-348.3" font-family="Helvetica,sans-Serif" font-size="14.00" fill="#222222">0.0</text>
<polygon fill="#ffffff" stroke="none" points="215,-342.5 215,-361.5 238,-361.5 238,-342.5 215,-342.5"/>
<text text-anchor="start" x="222" y="-348.3" font-family="Helvetica,sans-Serif" font-size="14.00" fill="#222222">0</text>
<polyline fill="none" stroke="#777777" points="111,-341.5 98,-341.5 "/>
<polyline fill="none" stroke="#777777" points="178,-341.5 112,-341.5 "/>
<text text-anchor="start" x="129" y="-327.3" font-family="Helvetica,sans-Serif" font-size="14.00" fill="#222222">Total</text>
<polyline fill="none" stroke="#777777" points="214,-341.5 179,-341.5 "/>
<text text-anchor="start" x="182" y="-327.3" font-family="Helvetica,sans-Serif" font-size="14.00" fill="#222222">33.3</text>
<polyline fill="none" stroke="#777777" points="238,-341.5 215,-341.5 "/>
<text text-anchor="start" x="218" y="-327.3" font-family="Helvetica,sans-Serif" font-size="14.00" fill="#222222">33</text>
<polygon fill="#ffffff" stroke="none" points="124,-313.5 124,-316.5 154,-316.5 154,-313.5 124,-313.5"/>
<polygon fill="#ffffff" stroke="none" points="154,-313.5 154,-316.5 184,-316.5 184,-313.5 154,-313.5"/>
<polygon fill="#ffffff" stroke="none" points="184,-313.5 184,-316.5 214,-316.5 214,-313.5 184,-313.5"/>
<polygon fill="#7293cb" stroke="none" points="124,-293.5 124,-313.5 154,-313.5 154,-293.5 124,-293.5"/>
<polygon fill="#ffffff" stroke="none" points="154,-293.5 154,-313.5 184,-313.5 184,-293.5 154,-293.5"/>
<polygon fill="#ffffff" stroke="none" points="184,-293.5 184,-313.5 214,-313.5 214,-293.5 184,-293.5"/>
<polygon fill="#7293cb" stroke="none" points="124,-291.5 124,-293.5 154,-293.5 154,-291.5 124,-291.5"/>
<polygon fill="#e1974c" stroke="none" points="154,-291.5 154,-293.5 184,-293.5 184,-291.5 154,-291.5"/>
<polygon fill="#ffffff" stroke="none" points="184,-291.5 184,-293.5 214,-293.5 214,-291.5 184,-291.5"/>
<polyline fill="none" stroke="#777777" points="123,-317.5 123,-292.5 213,-292.5 "/>
<polygon fill="none" stroke="#777777" points="96,-289 96,-446 240,-446 240,-289 96,-289"/>
</g>
<!-- V3 -->
<g id="node8" class="node"><title>V3</title>
<text text-anchor="middle" x="168" y="-227.5" font-family="Helvetica,sans-Serif" font-size="10.00">petal_length</text>
</g>
<!-- 3&#45;&gt;V3 -->
<g id="edge6" class="edge"><title>3&#45;&gt;V3</title>
<path fill="none" stroke="#777777" d="M168,-284.943C168,-271.042 168,-257.952 168,-248.148"/>
</g>
<!-- V2&#45;&gt;3 -->
<g id="edge5" class="edge"><title>V2&#45;&gt;3</title>
<path fill="none" stroke="#777777" d="M285.221,-496.738C275.904,-486.546 263.317,-472.776 249.842,-458.034"/>
<polygon fill="#777777" stroke="#777777" points="252.057,-455.269 242.726,-450.249 246.89,-459.992 252.057,-455.269"/>
<text text-anchor="middle" x="281" y="-471" font-family="Helvetica,sans-Serif" font-size="10.00" fill="#222222">&lt;=1.7</text>
</g>
<!-- 6 -->
<g id="node10" class="node"><title>6</title>
<text text-anchor="start" x="322.5" y="-430.3" font-family="Helvetica,sans-Serif" font-size="14.00" fill="#222222">Node 6</text>
<polyline fill="none" stroke="#777777" points="276,-402.5 289,-402.5 "/>
<polyline fill="none" stroke="#777777" points="290,-402.5 356,-402.5 "/>
<text text-anchor="start" x="294" y="-409.3" font-family="Helvetica,sans-Serif" font-size="14.00" fill="#222222">Category</text>
<polyline fill="none" stroke="#777777" points="357,-402.5 392,-402.5 "/>
<text text-anchor="start" x="368" y="-409.3" font-family="Helvetica,sans-Serif" font-size="14.00" fill="#222222">%</text>
<polyline fill="none" stroke="#777777" points="393,-402.5 416,-402.5 "/>
<text text-anchor="start" x="400.5" y="-409.3" font-family="Helvetica,sans-Serif" font-size="14.00" fill="#222222">n</text>
<polygon fill="#ffffff" stroke="none" points="276,-382.5 276,-401.5 289,-401.5 289,-382.5 276,-382.5"/>
<text text-anchor="start" x="278" y="-388.3" font-family="Helvetica,sans-Serif" font-size="14.00" fill="#7293cb">■</text>
<polygon fill="#ffffff" stroke="none" points="290,-382.5 290,-401.5 356,-401.5 356,-382.5 290,-382.5"/>
<text text-anchor="start" x="292" y="-388.3" font-family="Helvetica,sans-Serif" font-size="14.00" fill="#222222">versicolor</text>
<polygon fill="#ffffff" stroke="none" points="357,-382.5 357,-401.5 392,-401.5 392,-382.5 357,-382.5"/>
<text text-anchor="start" x="364" y="-388.3" font-family="Helvetica,sans-Serif" font-size="14.00" fill="#222222">3.2</text>
<polygon fill="#ffffff" stroke="none" points="393,-382.5 393,-401.5 416,-401.5 416,-382.5 393,-382.5"/>
<text text-anchor="start" x="400" y="-388.3" font-family="Helvetica,sans-Serif" font-size="14.00" fill="#222222">1</text>
<polygon fill="#aaaaaa" stroke="none" points="276,-362.5 276,-381.5 289,-381.5 289,-362.5 276,-362.5"/>
<text text-anchor="start" x="278" y="-368.3" font-family="Helvetica,sans-Serif" font-size="14.00" fill="#e1974c">■</text>
<polygon fill="#aaaaaa" stroke="none" points="290,-362.5 290,-381.5 356,-381.5 356,-362.5 290,-362.5"/>
<text text-anchor="start" x="297" y="-368.3" font-family="Helvetica,sans-Serif" font-size="14.00" fill="#ffffff">virginica</text>
<polygon fill="#aaaaaa" stroke="none" points="357,-362.5 357,-381.5 392,-381.5 392,-362.5 357,-362.5"/>
<text text-anchor="start" x="360" y="-368.3" font-family="Helvetica,sans-Serif" font-size="14.00" fill="#ffffff">96.8</text>
<polygon fill="#aaaaaa" stroke="none" points="393,-362.5 393,-381.5 416,-381.5 416,-362.5 393,-362.5"/>
<text text-anchor="start" x="396" y="-368.3" font-family="Helvetica,sans-Serif" font-size="14.00" fill="#ffffff">30</text>
<polygon fill="#ffffff" stroke="none" points="276,-342.5 276,-361.5 289,-361.5 289,-342.5 276,-342.5"/>
<text text-anchor="start" x="278" y="-348.3" font-family="Helvetica,sans-Serif" font-size="14.00" fill="#84ba5b">■</text>
<polygon fill="#ffffff" stroke="none" points="290,-342.5 290,-361.5 356,-361.5 356,-342.5 290,-342.5"/>
<text text-anchor="start" x="301.5" y="-348.3" font-family="Helvetica,sans-Serif" font-size="14.00" fill="#222222">setosa</text>
<polygon fill="#ffffff" stroke="none" points="357,-342.5 357,-361.5 392,-361.5 392,-342.5 357,-342.5"/>
<text text-anchor="start" x="364" y="-348.3" font-family="Helvetica,sans-Serif" font-size="14.00" fill="#222222">0.0</text>
<polygon fill="#ffffff" stroke="none" points="393,-342.5 393,-361.5 416,-361.5 416,-342.5 393,-342.5"/>
<text text-anchor="start" x="400" y="-348.3" font-family="Helvetica,sans-Serif" font-size="14.00" fill="#222222">0</text>
<polyline fill="none" stroke="#777777" points="289,-341.5 276,-341.5 "/>
<polyline fill="none" stroke="#777777" points="356,-341.5 290,-341.5 "/>
<text text-anchor="start" x="307" y="-327.3" font-family="Helvetica,sans-Serif" font-size="14.00" fill="#222222">Total</text>
<polyline fill="none" stroke="#777777" points="392,-341.5 357,-341.5 "/>
<text text-anchor="start" x="360" y="-327.3" font-family="Helvetica,sans-Serif" font-size="14.00" fill="#222222">31.3</text>
<polyline fill="none" stroke="#777777" points="416,-341.5 393,-341.5 "/>
<text text-anchor="start" x="396" y="-327.3" font-family="Helvetica,sans-Serif" font-size="14.00" fill="#222222">31</text>
<polygon fill="#ffffff" stroke="none" points="302,-315.5 302,-316.5 332,-316.5 332,-315.5 302,-315.5"/>
<polygon fill="#ffffff" stroke="none" points="332,-315.5 332,-316.5 362,-316.5 362,-315.5 332,-315.5"/>
<polygon fill="#ffffff" stroke="none" points="362,-315.5 362,-316.5 392,-316.5 392,-315.5 362,-315.5"/>
<polygon fill="#ffffff" stroke="none" points="302,-291.5 302,-315.5 332,-315.5 332,-291.5 302,-291.5"/>
<polygon fill="#e1974c" stroke="none" points="332,-291.5 332,-315.5 362,-315.5 362,-291.5 332,-291.5"/>
<polygon fill="#ffffff" stroke="none" points="362,-291.5 362,-315.5 392,-315.5 392,-291.5 362,-291.5"/>
<polyline fill="none" stroke="#777777" points="301,-317.5 301,-292.5 391,-292.5 "/>
<polygon fill="none" stroke="#777777" points="274,-289 274,-446 418,-446 418,-289 274,-289"/>
</g>
<!-- V2&#45;&gt;6 -->
<g id="edge9" class="edge"><title>V2&#45;&gt;6</title>
<path fill="none" stroke="#777777" d="M306.339,-496.738C309.346,-487.013 313.361,-474.032 317.684,-460.056"/>
<polygon fill="#777777" stroke="#777777" points="321.106,-460.837 320.717,-450.249 314.418,-458.769 321.106,-460.837"/>
<text text-anchor="middle" x="324" y="-471" font-family="Helvetica,sans-Serif" font-size="10.00" fill="#222222">&gt;1.7</text>
</g>
<!-- 4 -->
<g id="node7" class="node"><title>4</title>
<text text-anchor="start" x="56.5" y="-145.3" font-family="Helvetica,sans-Serif" font-size="14.00" fill="#222222">Node 4</text>
<polyline fill="none" stroke="#777777" points="10,-117.5 23,-117.5 "/>
<polyline fill="none" stroke="#777777" points="24,-117.5 90,-117.5 "/>
<text text-anchor="start" x="28" y="-124.3" font-family="Helvetica,sans-Serif" font-size="14.00" fill="#222222">Category</text>
<polyline fill="none" stroke="#777777" points="91,-117.5 126,-117.5 "/>
<text text-anchor="start" x="102" y="-124.3" font-family="Helvetica,sans-Serif" font-size="14.00" fill="#222222">%</text>
<polyline fill="none" stroke="#777777" points="127,-117.5 150,-117.5 "/>
<text text-anchor="start" x="134.5" y="-124.3" font-family="Helvetica,sans-Serif" font-size="14.00" fill="#222222">n</text>
<polygon fill="#aaaaaa" stroke="none" points="10,-97.5 10,-116.5 23,-116.5 23,-97.5 10,-97.5"/>
<text text-anchor="start" x="12" y="-103.3" font-family="Helvetica,sans-Serif" font-size="14.00" fill="#7293cb">■</text>
<polygon fill="#aaaaaa" stroke="none" points="24,-97.5 24,-116.5 90,-116.5 90,-97.5 24,-97.5"/>
<text text-anchor="start" x="26" y="-103.3" font-family="Helvetica,sans-Serif" font-size="14.00" fill="#ffffff">versicolor</text>
<polygon fill="#aaaaaa" stroke="none" points="91,-97.5 91,-116.5 126,-116.5 126,-97.5 91,-97.5"/>
<text text-anchor="start" x="94" y="-103.3" font-family="Helvetica,sans-Serif" font-size="14.00" fill="#ffffff">96.8</text>
<polygon fill="#aaaaaa" stroke="none" points="127,-97.5 127,-116.5 150,-116.5 150,-97.5 127,-97.5"/>
<text text-anchor="start" x="130" y="-103.3" font-family="Helvetica,sans-Serif" font-size="14.00" fill="#ffffff">30</text>
<polygon fill="#ffffff" stroke="none" points="10,-77.5 10,-96.5 23,-96.5 23,-77.5 10,-77.5"/>
<text text-anchor="start" x="12" y="-83.3" font-family="Helvetica,sans-Serif" font-size="14.00" fill="#e1974c">■</text>
<polygon fill="#ffffff" stroke="none" points="24,-77.5 24,-96.5 90,-96.5 90,-77.5 24,-77.5"/>
<text text-anchor="start" x="31" y="-83.3" font-family="Helvetica,sans-Serif" font-size="14.00" fill="#222222">virginica</text>
<polygon fill="#ffffff" stroke="none" points="91,-77.5 91,-96.5 126,-96.5 126,-77.5 91,-77.5"/>
<text text-anchor="start" x="98" y="-83.3" font-family="Helvetica,sans-Serif" font-size="14.00" fill="#222222">3.2</text>
<polygon fill="#ffffff" stroke="none" points="127,-77.5 127,-96.5 150,-96.5 150,-77.5 127,-77.5"/>
<text text-anchor="start" x="134" y="-83.3" font-family="Helvetica,sans-Serif" font-size="14.00" fill="#222222">1</text>
<polygon fill="#ffffff" stroke="none" points="10,-57.5 10,-76.5 23,-76.5 23,-57.5 10,-57.5"/>
<text text-anchor="start" x="12" y="-63.3" font-family="Helvetica,sans-Serif" font-size="14.00" fill="#84ba5b">■</text>
<polygon fill="#ffffff" stroke="none" points="24,-57.5 24,-76.5 90,-76.5 90,-57.5 24,-57.5"/>
<text text-anchor="start" x="35.5" y="-63.3" font-family="Helvetica,sans-Serif" font-size="14.00" fill="#222222">setosa</text>
<polygon fill="#ffffff" stroke="none" points="91,-57.5 91,-76.5 126,-76.5 126,-57.5 91,-57.5"/>
<text text-anchor="start" x="98" y="-63.3" font-family="Helvetica,sans-Serif" font-size="14.00" fill="#222222">0.0</text>
<polygon fill="#ffffff" stroke="none" points="127,-57.5 127,-76.5 150,-76.5 150,-57.5 127,-57.5"/>
<text text-anchor="start" x="134" y="-63.3" font-family="Helvetica,sans-Serif" font-size="14.00" fill="#222222">0</text>
<polyline fill="none" stroke="#777777" points="23,-56.5 10,-56.5 "/>
<polyline fill="none" stroke="#777777" points="90,-56.5 24,-56.5 "/>
<text text-anchor="start" x="41" y="-42.3" font-family="Helvetica,sans-Serif" font-size="14.00" fill="#222222">Total</text>
<polyline fill="none" stroke="#777777" points="126,-56.5 91,-56.5 "/>
<text text-anchor="start" x="94" y="-42.3" font-family="Helvetica,sans-Serif" font-size="14.00" fill="#222222">31.3</text>
<polyline fill="none" stroke="#777777" points="150,-56.5 127,-56.5 "/>
<text text-anchor="start" x="130" y="-42.3" font-family="Helvetica,sans-Serif" font-size="14.00" fill="#222222">31</text>
<polygon fill="#ffffff" stroke="none" points="36,-30.5 36,-31.5 66,-31.5 66,-30.5 36,-30.5"/>
<polygon fill="#ffffff" stroke="none" points="66,-30.5 66,-31.5 96,-31.5 96,-30.5 66,-30.5"/>
<polygon fill="#ffffff" stroke="none" points="96,-30.5 96,-31.5 126,-31.5 126,-30.5 96,-30.5"/>
<polygon fill="#7293cb" stroke="none" points="36,-6.5 36,-30.5 66,-30.5 66,-6.5 36,-6.5"/>
<polygon fill="#ffffff" stroke="none" points="66,-6.5 66,-30.5 96,-30.5 96,-6.5 66,-6.5"/>
<polygon fill="#ffffff" stroke="none" points="96,-6.5 96,-30.5 126,-30.5 126,-6.5 96,-6.5"/>
<polyline fill="none" stroke="#777777" points="35,-32.5 35,-7.5 125,-7.5 "/>
<polygon fill="none" stroke="#777777" points="8,-4 8,-161 152,-161 152,-4 8,-4"/>
</g>
<!-- V3&#45;&gt;4 -->
<g id="edge7" class="edge"><title>V3&#45;&gt;4</title>
<path fill="none" stroke="#777777" d="M157.56,-211.738C151.508,-201.733 143.372,-188.28 134.641,-173.844"/>
<polygon fill="#777777" stroke="#777777" points="137.613,-171.995 129.443,-165.249 131.623,-175.617 137.613,-171.995"/>
<text text-anchor="middle" x="159" y="-186" font-family="Helvetica,sans-Serif" font-size="10.00" fill="#222222">&lt;=5.2</text>
</g>
<!-- 5 -->
<g id="node9" class="node"><title>5</title>
<text text-anchor="start" x="233.5" y="-145.3" font-family="Helvetica,sans-Serif" font-size="14.00" fill="#222222">Node 5</text>
<polyline fill="none" stroke="#777777" points="188,-117.5 201,-117.5 "/>
<polyline fill="none" stroke="#777777" points="202,-117.5 268,-117.5 "/>
<text text-anchor="start" x="206" y="-124.3" font-family="Helvetica,sans-Serif" font-size="14.00" fill="#222222">Category</text>
<polyline fill="none" stroke="#777777" points="269,-117.5 310,-117.5 "/>
<text text-anchor="start" x="283" y="-124.3" font-family="Helvetica,sans-Serif" font-size="14.00" fill="#222222">%</text>
<polyline fill="none" stroke="#777777" points="311,-117.5 326,-117.5 "/>
<text text-anchor="start" x="314.5" y="-124.3" font-family="Helvetica,sans-Serif" font-size="14.00" fill="#222222">n</text>
<polygon fill="#ffffff" stroke="none" points="188,-97.5 188,-116.5 201,-116.5 201,-97.5 188,-97.5"/>
<text text-anchor="start" x="190" y="-103.3" font-family="Helvetica,sans-Serif" font-size="14.00" fill="#7293cb">■</text>
<polygon fill="#ffffff" stroke="none" points="202,-97.5 202,-116.5 268,-116.5 268,-97.5 202,-97.5"/>
<text text-anchor="start" x="204" y="-103.3" font-family="Helvetica,sans-Serif" font-size="14.00" fill="#222222">versicolor</text>
<polygon fill="#ffffff" stroke="none" points="269,-97.5 269,-116.5 310,-116.5 310,-97.5 269,-97.5"/>
<text text-anchor="start" x="279" y="-103.3" font-family="Helvetica,sans-Serif" font-size="14.00" fill="#222222">0.0</text>
<polygon fill="#ffffff" stroke="none" points="311,-97.5 311,-116.5 326,-116.5 326,-97.5 311,-97.5"/>
<text text-anchor="start" x="314" y="-103.3" font-family="Helvetica,sans-Serif" font-size="14.00" fill="#222222">0</text>
<polygon fill="#aaaaaa" stroke="none" points="188,-77.5 188,-96.5 201,-96.5 201,-77.5 188,-77.5"/>
<text text-anchor="start" x="190" y="-83.3" font-family="Helvetica,sans-Serif" font-size="14.00" fill="#e1974c">■</text>
<polygon fill="#aaaaaa" stroke="none" points="202,-77.5 202,-96.5 268,-96.5 268,-77.5 202,-77.5"/>
<text text-anchor="start" x="209" y="-83.3" font-family="Helvetica,sans-Serif" font-size="14.00" fill="#ffffff">virginica</text>
<polygon fill="#aaaaaa" stroke="none" points="269,-77.5 269,-96.5 310,-96.5 310,-77.5 269,-77.5"/>
<text text-anchor="start" x="271" y="-83.3" font-family="Helvetica,sans-Serif" font-size="14.00" fill="#ffffff">100.0</text>
<polygon fill="#aaaaaa" stroke="none" points="311,-77.5 311,-96.5 326,-96.5 326,-77.5 311,-77.5"/>
<text text-anchor="start" x="314" y="-83.3" font-family="Helvetica,sans-Serif" font-size="14.00" fill="#ffffff">2</text>
<polygon fill="#ffffff" stroke="none" points="188,-57.5 188,-76.5 201,-76.5 201,-57.5 188,-57.5"/>
<text text-anchor="start" x="190" y="-63.3" font-family="Helvetica,sans-Serif" font-size="14.00" fill="#84ba5b">■</text>
<polygon fill="#ffffff" stroke="none" points="202,-57.5 202,-76.5 268,-76.5 268,-57.5 202,-57.5"/>
<text text-anchor="start" x="213.5" y="-63.3" font-family="Helvetica,sans-Serif" font-size="14.00" fill="#222222">setosa</text>
<polygon fill="#ffffff" stroke="none" points="269,-57.5 269,-76.5 310,-76.5 310,-57.5 269,-57.5"/>
<text text-anchor="start" x="279" y="-63.3" font-family="Helvetica,sans-Serif" font-size="14.00" fill="#222222">0.0</text>
<polygon fill="#ffffff" stroke="none" points="311,-57.5 311,-76.5 326,-76.5 326,-57.5 311,-57.5"/>
<text text-anchor="start" x="314" y="-63.3" font-family="Helvetica,sans-Serif" font-size="14.00" fill="#222222">0</text>
<polyline fill="none" stroke="#777777" points="201,-56.5 188,-56.5 "/>
<polyline fill="none" stroke="#777777" points="268,-56.5 202,-56.5 "/>
<text text-anchor="start" x="219" y="-42.3" font-family="Helvetica,sans-Serif" font-size="14.00" fill="#222222">Total</text>
<polyline fill="none" stroke="#777777" points="310,-56.5 269,-56.5 "/>
<text text-anchor="start" x="279" y="-42.3" font-family="Helvetica,sans-Serif" font-size="14.00" fill="#222222">2.0</text>
<polyline fill="none" stroke="#777777" points="326,-56.5 311,-56.5 "/>
<text text-anchor="start" x="314" y="-42.3" font-family="Helvetica,sans-Serif" font-size="14.00" fill="#222222">2</text>
<polygon fill="#ffffff" stroke="none" points="213,-6.5 213,-31.5 243,-31.5 243,-6.5 213,-6.5"/>
<polygon fill="#e1974c" stroke="none" points="243,-6.5 243,-31.5 273,-31.5 273,-6.5 243,-6.5"/>
<polygon fill="#ffffff" stroke="none" points="273,-6.5 273,-31.5 303,-31.5 303,-6.5 273,-6.5"/>
<polyline fill="none" stroke="#777777" points="212,-32.5 212,-7.5 302,-7.5 "/>
<polygon fill="none" stroke="#777777" points="186,-4 186,-161 328,-161 328,-4 186,-4"/>
</g>
<!-- V3&#45;&gt;5 -->
<g id="edge8" class="edge"><title>V3&#45;&gt;5</title>
<path fill="none" stroke="#777777" d="M178.559,-211.738C184.679,-201.733 192.908,-188.28 201.738,-173.844"/>
<polygon fill="#777777" stroke="#777777" points="204.763,-175.606 206.995,-165.249 198.791,-171.954 204.763,-175.606"/>
<text text-anchor="middle" x="204" y="-186" font-family="Helvetica,sans-Serif" font-size="10.00" fill="#222222">&gt;5.2</text>
</g>
</g>
</svg>
